{"title":"Fading Of The Cries 2011 R5 AC3 XViD DTRG - SAFCuk009","uid":6310926,"size":1553331386,"categoryP":"video","categoryS":"movies","magnet":"?xt=urn:btih:a53cbc752de12dbbad5b721071efaba98e19876e&amp;dn=Fading+Of+The+Cries+2011+R5+AC3+XViD+DTRG+-+SAFCuk009&amp;tr=udp%3A%2F%2Ftracker.openbittorrent.com%3A80&amp;tr=udp%3A%2F%2Fopen.demonii.com%3A1337&amp;tr=udp%3A%2F%2Ftracker.coppersurfer.tk%3A6969&amp;tr=udp%3A%2F%2Fexodus.desync.com%3A6969","seeders":0,"leechers":1,"uploader":"SAFCukO09","files":3,"time":1302530732,"description":"\n\n\nFormat                           : AVI\nFormat/Info                      : Audio Video Interleave\nFormat profile                   : OpenDML\nFile size                        : 1.45 GiB\nDuration                         : 1h 27mn\nOverall bit rate                 : 2 359 Kbps\nWriting library                  : MPlayer\n\nVideo\nID                               : 0\nFormat                           : MPEG-4 Visual\nFormat profile                   : Advanced Simple@L5\nFormat settings, BVOP            : Yes\nFormat settings, QPel            : Yes\nFormat settings, GMC             : No warppoints\nFormat settings, Matrix          : Default (H.263)\nMuxing mode                      : Packed bitstream\nCodec ID                         : XVID\nCodec ID/Hint                    : XviD\nDuration                         : 1h 27mn\nBit rate                         : 1 906 Kbps\nWidth                            : 720 pixels\nHeight                           : 400 pixels\nDisplay aspect ratio             : 16:9\nFrame rate                       : 25.000 fps\nColor space                      : YUV\nChroma subsampling               : 4:2:0\nBit depth                        : 8 bits\nScan type                        : Progressive\nBits/(Pixel*Frame)               : 0.265\nStream size                      : 1.17 GiB (81%)\nWriting library                  : XviD 1.2.1 (UTC 2008-12-04)\n\nAudio\nID                               : 1\nFormat                           : AC-3\nFormat/Info                      : Audio Coding 3\nMode extension                   : CM (complete main)\nCodec ID                         : 2000\nDuration                         : 1h 27mn\nBit rate mode                    : Constant\nBit rate                         : 448 Kbps\nChannel(s)                       : 6 channels\nChannel positions                : Front: L C R, Side: L R, LFE\nSampling rate                    : 48.0 KHz\nBit depth                        : 16 bits\nStream size                      : 281 MiB (19%)\nAlignment                        : Split accross interleaves\nInterleave, duration             : 500 ms (12.50 video frames)\nInterleave, preload duration     : 500 ms\n\n\n\n &lt;a href=&quot;\nhttp://www.imdb.com/title/tt1262406/&quot; rel=&quot;nofollow&quot; target=&quot;_NEW&quot;&gt;\nhttp://www.imdb.com/title/tt1262406/&lt;/a&gt;\n\n\n\n\n\n\n\nacob, a young man armed with a deadly sword, saves Sarah, a teenage girl, from Mathias, a malevolent evil that has begun plaguing a small farmland town while in search of an ancient necklace that had belonged to Sarahs Uncle.\n\nJacob sets out to get Sarah home safely, running through streets, fields, churches and underground tunnels, while being pursued by hordes of demonic creatures. Along the way, both come to terms with the demons within themselves - Sarah begins to understand her hatred towards her mother and sister may be unjustified and Jacob discovers the secrets of his past, realizing the only way to truly defeat the demons is to return to the very place his family was murdered. \n\n\n\n\n\n\n\n &lt;a href=&quot;\nhttp://img638.imageshack.us/img638/3193/vlcsnap2011041112h13m23.png&quot; rel=&quot;nofollow&quot; target=&quot;_NEW&quot;&gt;\nhttp://img638.imageshack.us/img638/3193/vlcsnap2011041112h13m23.png&lt;/a&gt;\n &lt;a href=&quot;\nhttp://img705.imageshack.us/img705/5708/vlcsnap2011041112h13m52.png&quot; rel=&quot;nofollow&quot; target=&quot;_NEW&quot;&gt;\nhttp://img705.imageshack.us/img705/5708/vlcsnap2011041112h13m52.png&lt;/a&gt;\n &lt;a href=&quot;\nhttp://img853.imageshack.us/img853/4359/vlcsnap2011041112h13m26.png&quot; rel=&quot;nofollow&quot; target=&quot;_NEW&quot;&gt;\nhttp://img853.imageshack.us/img853/4359/vlcsnap2011041112h13m26.png&lt;/a&gt;\n\n\nSource Russian DVD-5\n\nZatihajushie.kriki.2011.P.DVD.ELEKTRI4KA\n\n\nNot one was gonna do but was asked .......My take on it ......... Enjoy \n\n\n\n\nGreetz to Imagine ,Flawl3ss,DiLLoN,BDK,NOiR,TOXiCiNK,THC,Ez,Rx,Boobyblue\n\n\n\n\n","torrent":{"xt":"urn:btih:a53cbc752de12dbbad5b721071efaba98e19876e","amp;dn":"Fading+Of+The+Cries+2011+R5+AC3+XViD+DTRG+-+SAFCuk009","amp;tr":["udp%3A%2F%2Ftracker.openbittorrent.com%3A80","udp%3A%2F%2Fopen.demonii.com%3A1337","udp%3A%2F%2Ftracker.coppersurfer.tk%3A6969","udp%3A%2F%2Fexodus.desync.com%3A6969"],"infoHash":"a53cbc752de12dbbad5b721071efaba98e19876e","infoHashBuffer":{"type":"Buffer","data":[165,60,188,117,45,225,45,187,173,91,114,16,113,239,171,169,142,25,135,110]},"announce":[],"urlList":[]}}